<svg width="182" height="269" viewBox="0 0 182 269" fill="none" xmlns="http://www.w3.org/2000/svg">
<path fill-rule="evenodd" clip-rule="evenodd" d="M0 31C0 13.8792 13.8792 0 31 0H109C126.121 0 140 13.8792 140 31V97C140 114.121 126.121 128 109 128H91V141H140V269H0V141H44V128H31C13.8792 128 0 114.121 0 97V31Z" fill="#9EE7C3"/>
<path fill-rule="evenodd" clip-rule="evenodd" d="M21 31C21 13.8792 34.8792 0 52 0H130C147.121 0 161 13.8792 161 31V97C161 114.121 147.121 128 130 128H112V141H161V269H21V141H65V128H52C34.8792 128 21 114.121 21 97V31Z" fill="#7BC09E"/>
<path fill-rule="evenodd" clip-rule="evenodd" d="M42 31C42 13.8792 55.8792 0 73 0H151C168.121 0 182 13.8792 182 31V97C182 114.121 168.121 128 151 128H133V141H182V269H42V141H86V128H73C55.8792 128 42 114.121 42 97V31Z" fill="#438464"/>
</svg>
