<svg width="262" height="247" viewBox="0 0 262 247" fill="none" xmlns="http://www.w3.org/2000/svg">
<path fill-rule="evenodd" clip-rule="evenodd" d="M68.4185 57.9716L42.3267 93.7075L100.298 136.034L57.9716 194.006L93.7075 220.098L136.034 162.126L194.006 204.453L220.097 168.717L162.126 126.39L204.453 68.4186L168.717 42.3268L126.39 100.298L68.4185 57.9716ZM126.39 100.298L100.298 136.034L136.034 162.126L162.126 126.39L126.39 100.298Z" fill="#A7CDEC"/>
<path fill-rule="evenodd" clip-rule="evenodd" d="M77.8579 57.9716L51.7661 93.7075L109.738 136.034L67.4111 194.006L103.147 220.098L145.474 162.126L203.445 204.453L229.537 168.717L171.565 126.39L213.892 68.4186L178.156 42.3268L135.83 100.298L77.8579 57.9716ZM135.83 100.298L109.738 136.034L145.474 162.126L171.565 126.39L135.83 100.298Z" fill="#92B7D6"/>
<path fill-rule="evenodd" clip-rule="evenodd" d="M89.9941 57.9716L63.9023 93.7075L121.874 136.034L79.5473 194.006L115.283 220.098L157.61 162.126L215.581 204.453L241.673 168.717L183.702 126.39L226.028 68.4186L190.293 42.3268L147.966 100.298L89.9941 57.9716ZM147.966 100.298L121.874 136.034L157.61 162.126L183.702 126.39L147.966 100.298Z" fill="#5F93BE"/>
</svg>
