<svg width="246" height="144" viewBox="0 0 246 144" fill="none" xmlns="http://www.w3.org/2000/svg">
<path fill-rule="evenodd" clip-rule="evenodd" d="M93.6 84.96C117.061 84.96 136.08 65.9411 136.08 42.48C136.08 19.0189 117.061 0 93.6 0H3.57628e-06L0 81.36V144H136.08L92.309 84.96H93.6Z" fill="#C1C5FF"/>
<path fill-rule="evenodd" clip-rule="evenodd" d="M134.6 84.96C158.061 84.96 177.08 65.9411 177.08 42.48C177.08 19.0189 158.061 0 134.6 0H41L41 81.36V144H177.08L133.309 84.96H134.6Z" fill="#9A9FFF"/>
<path fill-rule="evenodd" clip-rule="evenodd" d="M202.6 84.96C226.061 84.96 245.08 65.9411 245.08 42.48C245.08 19.0189 226.061 0 202.6 0H109L109 81.36V144H245.08L201.309 84.96H202.6Z" fill="#8288FF"/>
</svg>
