<svg width="196" height="182" viewBox="0 0 196 182" fill="none" xmlns="http://www.w3.org/2000/svg">
<path fill-rule="evenodd" clip-rule="evenodd" d="M44.9961 1.5253C20.1454 1.5253 0 21.6708 0 46.5214C0 71.3721 20.1454 91.5175 44.9961 91.5175H0V181.51H99.144C123.995 181.51 144.14 161.364 144.14 136.514C144.14 111.663 123.995 91.5175 99.144 91.5175H144.14V1.5253H44.9961Z" fill="#FFCAB4"/>
<path fill-rule="evenodd" clip-rule="evenodd" d="M68.6382 1.5253C43.7876 1.5253 23.6422 21.6708 23.6422 46.5214C23.6422 71.3721 43.7876 91.5175 68.6382 91.5175H23.6421V181.51H122.786C147.637 181.51 167.782 161.364 167.782 136.514C167.782 111.663 147.637 91.5175 122.786 91.5175H167.782V1.5253H68.6382Z" fill="#FF996D"/>
<path fill-rule="evenodd" clip-rule="evenodd" d="M96.856 0C72.0053 0 51.8599 20.1455 51.8599 44.9961C51.8599 69.8468 72.0053 89.9922 96.8559 89.9922H51.8599V179.984H151.004C175.855 179.984 196 159.839 196 134.988C196 110.138 175.855 89.9922 151.004 89.9922H196V0H96.856Z" fill="#FF6B2C"/>
</svg>
